<?xml version="1.0" encoding="UTF-8" standalone="no"?>
<!DOCTYPE svg PUBLIC "-//W3C//DTD SVG 1.1//EN" "http://www.w3.org/Graphics/SVG/1.1/DTD/svg11.dtd">
<svg width="100%" height="100%" viewBox="0 0 1982 1982" version="1.1" xmlns="http://www.w3.org/2000/svg" xmlns:xlink="http://www.w3.org/1999/xlink" xml:space="preserve" xmlns:serif="http://www.serif.com/" style="fill-rule:evenodd;clip-rule:evenodd;stroke-linejoin:round;stroke-miterlimit:2;">
    <g transform="matrix(1,0,0,1,-7851,-2414)">
        <g transform="matrix(1,0,0,1,-0.833448,-0.374987)">
            <rect id="After-Effects" serif:id="After Effects" x="7851.83" y="2414.38" width="1981.46" height="1981.46" style="fill:none;"/>
            <clipPath id="_clip1">
                <rect id="After-Effects1" serif:id="After Effects" x="7851.83" y="2414.38" width="1981.46" height="1981.46"/>
            </clipPath>
            <g clip-path="url(#_clip1)">
                <g transform="matrix(4.16667,0,0,4.16667,5084.17,-3124.63)">
                    <path d="M1049.95,1805L754.476,1805C704.751,1805 664.44,1764.69 664.44,1714.96L664.44,1419.49C664.44,1369.76 704.751,1329.45 754.476,1329.45L1049.95,1329.45C1099.68,1329.45 1139.99,1369.76 1139.99,1419.49L1139.99,1714.96C1139.99,1764.69 1099.68,1805 1049.95,1805Z" style="fill:rgb(31,33,85);fill-rule:nonzero;"/>
                </g>
                <g transform="matrix(4.16667,0,0,4.16667,5084.17,-3124.63)">
                    <path d="M851.997,1577.55C845.794,1558.05 831.91,1516.99 826.003,1496.32L825.707,1496.32C820.981,1516.11 809.165,1550.67 800.303,1577.55L851.997,1577.55ZM790.85,1609.75L774.604,1658.49C774.013,1660.26 773.127,1660.85 771.355,1660.85L741.815,1660.85C740.043,1660.85 739.452,1659.97 739.747,1657.9L800.598,1484.8C801.78,1481.84 802.666,1478.89 803.257,1468.84C803.257,1467.66 803.848,1466.78 805.029,1466.78L846.089,1466.78C847.566,1466.78 847.861,1467.07 848.157,1468.55L916.393,1658.19C916.688,1659.97 916.393,1660.85 914.621,1660.85L881.537,1660.85C880.06,1660.85 879.173,1660.26 878.583,1659.08L861.45,1609.75L790.85,1609.75Z" style="fill:rgb(134,136,194);fill-rule:nonzero;"/>
                </g>
                <g transform="matrix(4.16667,0,0,4.16667,5084.17,-3124.63)">
                    <path d="M1007.07,1570.76C1018.3,1570.76 1022.14,1570.76 1023.32,1570.46L1023.32,1568.1C1023.32,1559.53 1017.41,1540.63 994.962,1540.63C974.581,1540.63 965.423,1556.28 963.06,1570.76L1007.07,1570.76ZM963.06,1596.16C963.946,1616.84 977.535,1633.38 1007.66,1633.38C1020.96,1633.38 1033.07,1631.02 1044.29,1626.29C1045.18,1625.7 1046.07,1625.99 1046.07,1627.47L1046.07,1651.99C1046.07,1653.76 1045.48,1654.65 1044.29,1655.24C1033.07,1660.56 1020.07,1663.8 999.985,1663.8C946.222,1663.8 927.022,1625.99 927.022,1589.66C927.022,1548.6 951.835,1512.27 996.44,1512.27C1040.16,1512.27 1057,1546.53 1057,1574.6C1057,1582.87 1056.7,1589.66 1055.81,1592.91C1055.52,1594.09 1054.93,1594.68 1053.45,1594.98C1049.32,1595.86 1037.5,1596.16 1023.02,1596.16L963.06,1596.16Z" style="fill:rgb(134,136,194);fill-rule:nonzero;"/>
                </g>
            </g>
        </g>
    </g>
</svg>
