<?xml version="1.0" encoding="UTF-8" standalone="no"?><!DOCTYPE svg PUBLIC "-//W3C//DTD SVG 1.1//EN" "http://www.w3.org/Graphics/SVG/1.1/DTD/svg11.dtd"><svg width="100%" height="100%" viewBox="0 0 10417 10134" version="1.1" xmlns="http://www.w3.org/2000/svg" xmlns:xlink="http://www.w3.org/1999/xlink" xml:space="preserve" xmlns:serif="http://www.serif.com/" style="fill-rule:evenodd;clip-rule:evenodd;stroke-linejoin:round;stroke-miterlimit:2;"><g><path d="M5188.19,0.749c-2864.99,-0 -5188.19,2322.79 -5188.19,5188.19c0,2292.32 1486.57,4237.06 3548.01,4923.1c259.278,48.014 354.493,-112.549 354.493,-249.593c-0,-123.698 -4.843,-532.43 -7.04,-965.942c-1443.4,313.842 -1747.97,-612.142 -1747.97,-612.142c-236.003,-599.691 -576.05,-759.115 -576.05,-759.115c-470.703,-322.021 35.482,-315.43 35.482,-315.43c520.996,36.622 795.328,534.668 795.328,534.668c462.728,793.173 1213.7,563.843 1509.77,431.316c46.549,-335.368 181.03,-564.209 329.386,-693.767c-1152.34,-131.225 -2363.77,-576.09 -2363.77,-2564.05c-0,-566.406 202.677,-1029.26 534.586,-1392.58c-53.873,-130.697 -231.445,-658.366 50.253,-1373.01c-0,-0 435.669,-139.445 1427.12,531.819c413.818,-114.99 857.666,-172.607 1298.58,-174.56c440.918,1.953 885.091,59.57 1299.72,174.56c990.275,-671.264 1425.33,-531.819 1425.33,-531.819c282.389,714.64 104.736,1242.31 50.862,1373.01c332.642,363.322 533.936,826.131 533.936,1392.58c-0,1992.68 -1213.7,2431.48 -2368.98,2559.9c186.076,161.011 351.888,476.766 351.888,960.775c0,694.173 -6.022,1252.89 -6.022,1423.79c-0,138.062 93.384,299.845 356.405,248.901c2060.3,-686.808 3545,-2630.86 3545,-4922.4c-0,-2865.4 -2322.88,-5188.19 -5188.15,-5188.19" style="fill:#fff;fill-rule:nonzero;"/><path d="M1943.16,7391.45c-11.393,25.757 -52.002,33.488 -88.908,15.829c-37.638,-16.928 -58.797,-52.084 -46.59,-77.963c11.19,-26.53 51.798,-33.935 89.355,-16.113c37.72,16.886 59.204,52.368 46.143,78.247m255.208,227.702c-24.739,22.949 -73.12,12.288 -105.957,-23.967c-33.935,-36.173 -40.283,-84.513 -15.177,-107.828c25.513,-22.909 72.428,-12.207 106.445,24.007c33.936,36.58 40.527,84.635 14.649,107.829m175.13,291.3c-31.82,22.095 -83.822,1.384 -115.926,-44.759c-31.779,-46.102 -31.779,-101.44 0.691,-123.617c32.227,-22.176 83.415,-2.238 115.967,43.539c31.738,46.915 31.738,102.254 -0.773,124.878m296.102,337.402c-28.442,31.331 -88.989,22.949 -133.341,-19.857c-45.329,-41.829 -57.984,-101.196 -29.46,-132.568c28.768,-31.413 89.681,-22.583 134.359,19.857c45.044,41.748 58.797,101.562 28.483,132.568m382.609,113.932c-12.492,40.609 -70.842,59.082 -129.598,41.83c-58.675,-17.782 -97.087,-65.389 -85.246,-106.446c12.207,-40.893 70.801,-60.139 130.005,-41.666c58.594,17.7 97.086,64.941 84.879,106.282m435.507,48.3c1.464,42.806 -48.381,78.287 -110.067,79.06c-62.053,1.343 -112.223,-33.284 -112.874,-75.358c-0,-43.213 48.706,-78.369 110.717,-79.386c61.686,-1.221 112.224,33.162 112.224,75.684m427.815,-16.399c7.406,41.748 -35.481,84.636 -96.72,96.029c-60.221,10.986 -115.967,-14.77 -123.657,-56.152c-7.487,-42.806 36.214,-85.653 96.313,-96.761c61.361,-10.661 116.252,14.445 124.064,56.884" style="fill:#fff;fill-rule:nonzero;"/></g></svg>