<?xml version="1.0" encoding="UTF-8" standalone="no"?>
<!DOCTYPE svg PUBLIC "-//W3C//DTD SVG 1.1//EN" "http://www.w3.org/Graphics/SVG/1.1/DTD/svg11.dtd">
<svg width="100%" height="100%" viewBox="0 0 1982 1982" version="1.1" xmlns="http://www.w3.org/2000/svg" xmlns:xlink="http://www.w3.org/1999/xlink" xml:space="preserve" xmlns:serif="http://www.serif.com/" style="fill-rule:evenodd;clip-rule:evenodd;stroke-linejoin:round;stroke-miterlimit:2;">
    <g transform="matrix(1,0,0,1,-10368,-2)">
        <g transform="matrix(1,0,0,1,7599.52,-0.374776)">
            <rect id="Illustrator" x="2768.48" y="2.375" width="1981.43" height="1981.45" style="fill:none;"/>
            <clipPath id="_clip1">
                <rect id="Illustrator1" serif:id="Illustrator" x="2768.48" y="2.375" width="1981.43" height="1981.45"/>
            </clipPath>
            <g clip-path="url(#_clip1)">
                <g transform="matrix(4.16667,0,0,4.16667,0.483226,0.374776)">
                    <path d="M1049.95,476.117L754.473,476.117C704.747,476.117 664.436,435.806 664.436,386.081L664.436,90.607C664.436,40.881 704.747,0.57 754.473,0.57L1049.95,0.57C1099.67,0.57 1139.98,40.881 1139.98,90.607L1139.98,386.081C1139.98,435.806 1099.67,476.117 1049.95,476.117Z" style="fill:rgb(34,0,6);fill-rule:nonzero;"/>
                </g>
                <g transform="matrix(4.16667,0,0,4.16667,0.483226,0.374776)">
                    <path d="M888.626,248.669C882.422,229.173 868.539,188.113 862.631,167.435L862.336,167.435C857.609,187.227 845.794,221.788 836.931,248.669L888.626,248.669ZM827.479,280.867L811.232,329.607C810.641,331.38 809.755,331.97 807.983,331.97L778.443,331.97C776.671,331.97 776.08,331.084 776.376,329.016L837.227,155.915C838.408,152.961 839.294,150.007 839.885,139.964C839.885,138.782 840.476,137.896 841.658,137.896L882.718,137.896C884.194,137.896 884.49,138.191 884.785,139.668L953.022,329.312C953.317,331.084 953.022,331.97 951.25,331.97L918.166,331.97C916.688,331.97 915.802,331.38 915.211,330.198L898.078,280.867L827.479,280.867Z" style="fill:rgb(237,166,39);fill-rule:nonzero;"/>
                </g>
                <g transform="matrix(4.16667,0,0,4.16667,0.483226,0.374776)">
                    <path d="M974.58,188.408C974.58,186.931 975.465,186.341 976.942,186.341L1008.25,186.341C1010.03,186.341 1010.62,186.636 1010.62,188.408L1010.62,329.607C1010.62,331.38 1010.03,331.97 1007.96,331.97L977.533,331.97C975.465,331.97 974.58,331.084 974.58,329.312L974.58,188.408ZM972.511,146.167C972.511,134.056 981.078,125.785 992.894,125.785C1005.6,125.785 1012.98,134.351 1012.98,146.167C1012.98,158.278 1005,166.55 992.598,166.55C980.487,166.55 972.511,158.278 972.511,146.167Z" style="fill:rgb(237,166,39);fill-rule:nonzero;"/>
                </g>
            </g>
        </g>
    </g>
</svg>
