<?xml version="1.0" encoding="UTF-8" standalone="no"?><!DOCTYPE svg PUBLIC "-//W3C//DTD SVG 1.1//EN" "http://www.w3.org/Graphics/SVG/1.1/DTD/svg11.dtd"><svg width="100%" height="100%" viewBox="0 0 330 330" version="1.1" xmlns="http://www.w3.org/2000/svg" xmlns:xlink="http://www.w3.org/1999/xlink" xml:space="preserve" xmlns:serif="http://www.serif.com/" style="fill-rule:evenodd;clip-rule:evenodd;stroke-linejoin:round;stroke-miterlimit:2;"><path d="M110.293,320.659c-64.221,-22.56 -110.293,-83.772 -110.293,-155.659c0,-91.066 73.934,-165 165,-165c13.806,0 27.217,1.699 40.042,4.927l-81.433,88.072l0.058,0.053l-0,195.948l33.333,-36l0,-172.56l65.005,-70.304c63.014,23.224 107.995,83.833 107.995,154.864c-0,91.066 -73.934,165 -165,165c-12.913,-0 -25.482,-1.487 -37.543,-4.35l74.327,-80.385l-0.058,-0.054l-0,-195.948l-33.333,36l-0,172.56l-58.1,62.836Z" style="fill:#fff;"/></svg>