<?xml version="1.0" encoding="UTF-8" standalone="no"?>
<!DOCTYPE svg PUBLIC "-//W3C//DTD SVG 1.1//EN" "http://www.w3.org/Graphics/SVG/1.1/DTD/svg11.dtd">
<svg width="100%" height="100%" viewBox="0 0 1982 1982" version="1.1" xmlns="http://www.w3.org/2000/svg" xmlns:xlink="http://www.w3.org/1999/xlink" xml:space="preserve" xmlns:serif="http://www.serif.com/" style="fill-rule:evenodd;clip-rule:evenodd;stroke-linejoin:round;stroke-miterlimit:2;">
    <g transform="matrix(1,0,0,1,-7866,-2)">
        <g transform="matrix(1,0,0,1,-0.666899,-0.374776)">
            <rect id="Photoshop" x="7866.67" y="2.375" width="1981.45" height="1981.45" style="fill:none;"/>
            <clipPath id="_clip1">
                <rect id="Photoshop1" serif:id="Photoshop" x="7866.67" y="2.375" width="1981.45" height="1981.45"/>
            </clipPath>
            <g clip-path="url(#_clip1)">
                <g transform="matrix(4.16667,0,0,4.16667,7867.33,0.374776)">
                    <path d="M385.511,476.117L90.036,476.117C40.31,476.117 0,435.806 0,386.081L0,90.607C0,40.881 40.31,0.57 90.036,0.57L385.511,0.57C435.236,0.57 475.547,40.881 475.547,90.607L475.547,386.081C475.547,435.806 435.236,476.117 385.511,476.117Z" style="fill:rgb(0,24,49);fill-rule:nonzero;"/>
                </g>
                <g transform="matrix(4.16667,0,0,4.16667,7867.33,0.374776)">
                    <path d="M149.601,237.444C154.622,237.739 158.462,237.739 168.21,237.739C193.023,237.739 213.997,229.468 213.997,202.588C213.997,181.024 198.636,168.321 171.46,168.321C161.121,168.321 152.85,168.617 149.601,168.912L149.601,237.444ZM113.858,140.554C113.858,139.077 114.449,138.191 115.925,138.191C127.15,137.896 149.01,137.305 170.574,137.305C227.88,137.305 249.148,169.208 249.148,201.701C249.148,248.669 212.815,269.051 168.21,269.051L149.601,269.051L149.601,329.607C149.601,331.084 149.01,331.97 147.237,331.97L116.221,331.97C114.744,331.97 113.858,331.38 113.858,329.903L113.858,140.554Z" style="fill:rgb(58,157,215);fill-rule:nonzero;"/>
                </g>
                <g transform="matrix(4.16667,0,0,4.16667,7867.33,0.374776)">
                    <path d="M328.309,212.04C312.653,212.04 307.336,218.539 307.336,224.742C307.336,231.241 311.767,235.672 330.672,243.056C364.347,255.463 375.867,268.756 375.867,289.729C375.867,317.496 354.008,334.925 317.674,334.925C300.246,334.925 284.886,331.675 276.024,326.654C274.547,325.767 273.956,325.176 273.956,323.404L273.956,295.342C273.956,293.864 275.138,293.274 276.319,293.864C289.021,302.135 305.268,305.68 318.561,305.68C333.921,305.68 341.306,300.363 341.306,292.683C341.306,285.298 335.694,280.571 317.379,273.187C285.181,261.371 273.661,248.078 273.661,226.81C273.661,204.36 291.975,183.387 328.899,183.387C346.032,183.387 359.03,185.75 366.119,189.295C367.596,190.181 367.892,191.363 367.892,192.84L367.892,218.834C367.892,220.311 367.005,221.197 365.233,220.607C356.076,215.585 341.306,212.04 328.309,212.04Z" style="fill:rgb(58,157,215);fill-rule:nonzero;"/>
                </g>
            </g>
        </g>
    </g>
</svg>
