<?xml version="1.0" encoding="UTF-8" standalone="no"?>
<!DOCTYPE svg PUBLIC "-//W3C//DTD SVG 1.1//EN" "http://www.w3.org/Graphics/SVG/1.1/DTD/svg11.dtd">
<svg width="100%" height="100%" viewBox="0 0 1982 1982" version="1.1" xmlns="http://www.w3.org/2000/svg" xmlns:xlink="http://www.w3.org/1999/xlink" xml:space="preserve" xmlns:serif="http://www.serif.com/" style="fill-rule:evenodd;clip-rule:evenodd;stroke-linejoin:round;stroke-miterlimit:2;">
    <g transform="matrix(1,0,0,1,-13057,-2)">
        <g transform="matrix(1,0,0,1,-0.833508,-0.374776)">
            <rect id="Premier-Pro" serif:id="Premier Pro" x="13057.8" y="2.375" width="1981.46" height="1981.45" style="fill:none;"/>
            <clipPath id="_clip1">
                <rect id="Premier-Pro1" serif:id="Premier Pro" x="13057.8" y="2.375" width="1981.46" height="1981.45"/>
            </clipPath>
            <g clip-path="url(#_clip1)">
                <g transform="matrix(4.16667,0,0,4.16667,7521.67,0.374776)">
                    <path d="M1714.39,476.117L1418.92,476.117C1369.19,476.117 1328.88,435.806 1328.88,386.081L1328.88,90.607C1328.88,40.881 1369.19,0.57 1418.92,0.57L1714.39,0.57C1764.12,0.57 1804.43,40.881 1804.43,90.607L1804.43,386.081C1804.43,435.806 1764.12,476.117 1714.39,476.117Z" style="fill:rgb(31,33,85);fill-rule:nonzero;"/>
                </g>
                <g transform="matrix(4.16667,0,0,4.16667,7521.67,0.374776)">
                    <path d="M1490.74,237.444C1495.76,237.739 1499.6,237.739 1509.35,237.739C1534.16,237.739 1555.13,229.468 1555.13,202.588C1555.13,181.024 1539.77,168.321 1512.6,168.321C1502.26,168.321 1493.99,168.617 1490.74,168.912L1490.74,237.444ZM1454.99,140.554C1454.99,139.077 1455.59,138.191 1457.06,138.191C1468.29,137.896 1490.15,137.305 1511.71,137.305C1569.02,137.305 1590.29,169.208 1590.29,201.701C1590.29,248.669 1553.95,269.051 1509.35,269.051L1490.74,269.051L1490.74,329.607C1490.74,331.084 1490.15,331.97 1488.37,331.97L1457.36,331.97C1455.88,331.97 1454.99,331.38 1454.99,329.903L1454.99,140.554Z" style="fill:rgb(134,136,194);fill-rule:nonzero;"/>
                </g>
                <g transform="matrix(4.16667,0,0,4.16667,7521.67,0.374776)">
                    <path d="M1644.05,186.341C1645.82,186.341 1646.7,186.931 1647.3,188.704C1648.77,192.544 1649.95,199.929 1650.25,206.427C1660.29,194.021 1677.13,183.387 1697.51,183.387C1699.28,183.387 1699.88,183.682 1699.88,185.455L1699.88,216.766C1699.88,218.243 1699.28,218.834 1697.22,218.834C1676.24,218.243 1658.82,225.628 1652.02,234.49L1652.02,329.607C1652.02,331.38 1651.14,331.97 1649.36,331.97L1618.64,331.97C1616.57,331.97 1615.98,331.084 1615.98,329.607L1615.98,227.696C1615.98,214.994 1615.69,197.861 1614.51,188.113C1614.51,186.636 1614.8,186.341 1616.28,186.341L1644.05,186.341Z" style="fill:rgb(134,136,194);fill-rule:nonzero;"/>
                </g>
            </g>
        </g>
    </g>
</svg>
